<svg xmlns="http://www.w3.org/2000/svg" xmlns:xlink="http://www.w3.org/1999/xlink"><symbol id="arrow" viewBox="0 0 18 34"><g fill="none">
<path d="M17 1L0.999999 17L17 33" stroke="#AFAFAF"/>
</g></symbol><symbol id="icon-close" viewBox="0 0 20 20"><g fill="none"><path d="M.293 18.291a1 1 0 101.414 1.414L10 11.413l8.292 8.292a1 1 0 101.414-1.414l-8.292-8.292 8.292-8.292A1 1 0 1018.291.293L9.999 8.585 1.707.293A1 1 0 10.293 1.707L8.585 10 .293 18.291z"/></g></symbol><symbol id="logo-drink2go" viewBox="0 0 170 36"><g fill="none">
<path d="M140.08 26.336C138.752 26.336 137.52 26.128 136.384 25.712C135.248 25.28 134.264 24.672 133.432 23.888C132.616 23.104 131.976 22.184 131.512 21.128C131.048 20.056 130.816 18.88 130.816 17.6C130.816 16.32 131.048 15.152 131.512 14.096C131.976 13.024 132.624 12.096 133.456 11.312C134.288 10.528 135.272 9.928 136.408 9.512C137.56 9.08 138.816 8.864 140.176 8.864C141.76 8.864 143.176 9.128 144.424 9.656C145.672 10.184 146.704 10.944 147.52 11.936L144.496 14.672C143.92 14.048 143.296 13.584 142.624 13.28C141.968 12.96 141.232 12.8 140.416 12.8C139.696 12.8 139.04 12.912 138.448 13.136C137.856 13.36 137.352 13.688 136.936 14.12C136.52 14.536 136.192 15.04 135.952 15.632C135.728 16.208 135.616 16.864 135.616 17.6C135.616 18.304 135.728 18.952 135.952 19.544C136.192 20.136 136.52 20.648 136.936 21.08C137.352 21.496 137.848 21.824 138.424 22.064C139.016 22.288 139.664 22.4 140.368 22.4C141.072 22.4 141.76 22.288 142.432 22.064C143.104 21.824 143.784 21.424 144.472 20.864L147.136 24.2C146.176 24.888 145.064 25.416 143.8 25.784C142.536 26.152 141.296 26.336 140.08 26.336ZM142.936 23.576V17.24H147.136V24.2L142.936 23.576ZM159.101 26.336C157.757 26.336 156.517 26.12 155.381 25.688C154.245 25.256 153.253 24.648 152.405 23.864C151.573 23.064 150.925 22.136 150.461 21.08C149.997 20.024 149.765 18.864 149.765 17.6C149.765 16.336 149.997 15.176 150.461 14.12C150.925 13.064 151.573 12.144 152.405 11.36C153.253 10.56 154.245 9.944 155.381 9.512C156.517 9.08 157.757 8.864 159.101 8.864C160.461 8.864 161.701 9.08 162.821 9.512C163.957 9.944 164.941 10.56 165.773 11.36C166.605 12.144 167.253 13.064 167.717 14.12C168.197 15.176 168.437 16.336 168.437 17.6C168.437 18.864 168.197 20.032 167.717 21.104C167.253 22.16 166.605 23.08 165.773 23.864C164.941 24.648 163.957 25.256 162.821 25.688C161.701 26.12 160.461 26.336 159.101 26.336ZM159.101 22.4C159.741 22.4 160.333 22.288 160.877 22.064C161.437 21.84 161.917 21.52 162.317 21.104C162.733 20.672 163.053 20.16 163.277 19.568C163.517 18.976 163.637 18.32 163.637 17.6C163.637 16.864 163.517 16.208 163.277 15.632C163.053 15.04 162.733 14.536 162.317 14.12C161.917 13.688 161.437 13.36 160.877 13.136C160.333 12.912 159.741 12.8 159.101 12.8C158.461 12.8 157.861 12.912 157.301 13.136C156.757 13.36 156.277 13.688 155.861 14.12C155.461 14.536 155.141 15.04 154.901 15.632C154.677 16.208 154.565 16.864 154.565 17.6C154.565 18.32 154.677 18.976 154.901 19.568C155.141 20.16 155.461 20.672 155.861 21.104C156.277 21.52 156.757 21.84 157.301 22.064C157.861 22.288 158.461 22.4 159.101 22.4Z" fill="#333333"/>
<path fill-rule="evenodd" clip-rule="evenodd" d="M124 18C124 20.8737 123.401 23.5901 122.337 26H109C111.463 22.2281 114 17.6606 114 13C114 7.00236 109.938 1.95335 104.416 0.453392C105.568 0.156712 106.768 0 108 0C116.837 0 124 8.05888 124 18ZM110 13C110 8.02944 105.971 4 101 4C94.3493 4 92 12.5071 92 18C92 27.9411 99.1634 36 108 36C112.739 36 116.996 33.6825 119.926 30H101C101.352 29.5514 101.72 29.0891 102.099 28.6142C105.616 24.2012 110 18.6997 110 13Z" fill="#7859CF"/>
<path d="M2.65063 26V9.2H10.5946C12.4506 9.2 14.0826 9.544 15.4906 10.232C16.8986 10.92 17.9946 11.888 18.7786 13.136C19.5786 14.384 19.9786 15.872 19.9786 17.6C19.9786 19.312 19.5786 20.8 18.7786 22.064C17.9946 23.312 16.8986 24.28 15.4906 24.968C14.0826 25.656 12.4506 26 10.5946 26H2.65063ZM7.40263 22.208H10.4026C11.3626 22.208 12.1946 22.032 12.8986 21.68C13.6186 21.312 14.1786 20.784 14.5786 20.096C14.9786 19.392 15.1786 18.56 15.1786 17.6C15.1786 16.624 14.9786 15.792 14.5786 15.104C14.1786 14.416 13.6186 13.896 12.8986 13.544C12.1946 13.176 11.3626 12.992 10.4026 12.992H7.40263V22.208ZM22.9588 26V9.2H30.6388C32.1748 9.2 33.4948 9.448 34.5988 9.944C35.7188 10.44 36.5828 11.16 37.1908 12.104C37.7988 13.032 38.1028 14.136 38.1028 15.416C38.1028 16.68 37.7988 17.776 37.1908 18.704C36.5828 19.616 35.7188 20.32 34.5988 20.816C33.4948 21.296 32.1748 21.536 30.6388 21.536H25.5988L27.7108 19.544V26H22.9588ZM33.3508 26L29.1748 19.88H34.2388L38.4388 26H33.3508ZM27.7108 20.048L25.5988 17.864H30.3508C31.3428 17.864 32.0788 17.648 32.5588 17.216C33.0548 16.784 33.3028 16.184 33.3028 15.416C33.3028 14.632 33.0548 14.024 32.5588 13.592C32.0788 13.16 31.3428 12.944 30.3508 12.944H25.5988L27.7108 10.76V20.048ZM41.2044 26V9.2H45.9564V26H41.2044ZM49.8172 26V9.2H53.7292L62.9932 20.384H61.1452V9.2H65.8012V26H61.8892L52.6252 14.816H54.4732V26H49.8172ZM73.8811 22.28L73.6171 16.952L80.8411 9.2H86.0731L78.8731 17L76.2331 19.76L73.8811 22.28ZM69.6331 26V9.2H74.3371V26H69.6331ZM80.9131 26L75.4411 19.064L78.5371 15.752L86.4331 26H80.9131Z" fill="#333333"/>
</g></symbol><symbol id="logo" viewBox="0 0 119 23"><g fill="none">
<path d="M5.768 22.252C4.592 22.252 3.572 22.072 2.708 21.712C1.844 21.352 1.184 20.716 0.728 19.804C0.296 18.892 0.08 17.608 0.08 15.952V14.728C0.656 14.728 1.244 14.728 1.844 14.728C2.444 14.728 3.032 14.728 3.608 14.728V16.24C3.608 17.248 3.704 18.028 3.896 18.58C4.088 19.132 4.352 19.516 4.688 19.732C5.024 19.924 5.408 20.02 5.84 20.02C6.536 20.02 7.088 19.792 7.496 19.336C7.928 18.856 8.144 17.968 8.144 16.672C8.144 15.712 8 14.992 7.712 14.512C7.424 14.032 6.968 13.648 6.344 13.36C5.744 13.048 4.964 12.7 4.004 12.316C3.212 11.956 2.528 11.536 1.952 11.056C1.376 10.576 0.944 9.964 0.656 9.22C0.368 8.476 0.224 7.552 0.224 6.448C0.224 5.104 0.392 4.012 0.728 3.172C1.088 2.308 1.688 1.684 2.528 1.3C3.368 0.891999 4.496 0.688 5.912 0.688C7.736 0.688 9.128 1.108 10.088 1.948C11.048 2.764 11.528 3.964 11.528 5.548V8.032C10.976 8.032 10.412 8.032 9.836 8.032C9.284 8.032 8.72 8.032 8.144 8.032V6.556C8.144 5.452 7.964 4.66 7.604 4.18C7.268 3.676 6.716 3.424 5.948 3.424C5.156 3.424 4.58 3.664 4.22 4.144C3.884 4.6 3.716 5.332 3.716 6.34C3.716 7.204 3.884 7.876 4.22 8.356C4.556 8.812 4.988 9.172 5.516 9.436C6.068 9.7 6.632 9.94 7.208 10.156C8.288 10.564 9.164 10.984 9.836 11.416C10.508 11.848 11 12.424 11.312 13.144C11.624 13.864 11.78 14.884 11.78 16.204C11.78 17.716 11.528 18.916 11.024 19.804C10.544 20.668 9.848 21.292 8.936 21.676C8.048 22.06 6.992 22.252 5.768 22.252ZM20.9164 22.432C20.1004 22.432 19.3444 22.372 18.6484 22.252C17.9524 22.132 17.3524 21.892 16.8484 21.532C16.3444 21.172 15.9484 20.632 15.6604 19.912C15.3724 19.192 15.2284 18.22 15.2284 16.996V0.723999H18.6844V17.896C18.6844 18.544 18.7804 19.048 18.9724 19.408C19.1884 19.744 19.4644 19.972 19.8004 20.092C20.1364 20.212 20.5084 20.272 20.9164 20.272C21.3244 20.272 21.6964 20.212 22.0324 20.092C22.3684 19.972 22.6324 19.744 22.8244 19.408C23.0404 19.048 23.1484 18.544 23.1484 17.896V0.723999H26.5684V16.96C26.5684 18.184 26.4244 19.168 26.1364 19.912C25.8724 20.632 25.4884 21.172 24.9844 21.532C24.4804 21.892 23.8804 22.132 23.1844 22.252C22.4884 22.372 21.7324 22.432 20.9164 22.432ZM30.822 22V0.723999H38.022C39.366 0.723999 40.398 1.024 41.118 1.624C41.838 2.224 42.198 3.112 42.198 4.288V8.068C42.198 8.98 42.078 9.832 41.838 10.624C41.622 11.392 41.19 12.016 40.542 12.496C39.918 12.976 39.006 13.216 37.806 13.216H34.422V22H30.822ZM34.422 11.272H36.618C37.338 11.272 37.878 10.996 38.238 10.444C38.598 9.868 38.778 8.944 38.778 7.672V5.764C38.778 4.636 38.622 3.832 38.31 3.352C37.998 2.872 37.566 2.632 37.014 2.632H34.422V11.272ZM45.6045 22V0.723999H55.1805V3.172H49.2045V9.616H54.1365V12.316H49.2045V19.624H55.1805V22H45.6045ZM58.4534 22V0.723999H65.7974C67.1414 0.723999 68.1734 1.024 68.8934 1.624C69.6374 2.224 70.0094 3.112 70.0094 4.288V7.672C70.0094 8.848 69.6854 9.808 69.0374 10.552C68.3894 11.272 67.4294 11.668 66.1574 11.74C66.9734 11.812 67.5494 12.076 67.8854 12.532C68.2454 12.988 68.5694 13.696 68.8574 14.656L70.9094 22H67.0934L65.4014 14.908C65.2334 14.308 65.0414 13.78 64.8254 13.324C64.6094 12.868 64.2614 12.64 63.7814 12.64H62.0174V22H58.4534ZM62.0174 10.228H64.3214C65.1614 10.228 65.7494 10.012 66.0854 9.58C66.4454 9.148 66.6254 8.488 66.6254 7.6V4.9C66.6254 4.108 66.4574 3.532 66.1214 3.172C65.8094 2.812 65.3174 2.632 64.6454 2.632H62.0174V10.228ZM78.6132 22.396C77.7972 22.396 77.0292 22.264 76.3092 22C75.5892 21.76 75.0012 21.268 74.5452 20.524C74.1132 19.756 73.8972 18.616 73.8972 17.104V5.224C73.8972 3.928 74.1372 2.944 74.6172 2.272C75.0972 1.576 75.7692 1.108 76.6332 0.868C77.4972 0.603999 78.4932 0.471998 79.6212 0.471998C80.7492 0.471998 81.7452 0.603999 82.6092 0.868C83.4732 1.132 84.1452 1.612 84.6252 2.308C85.1292 2.98 85.3812 3.952 85.3812 5.224V8.104H82.0332V5.08C82.0332 4.36 81.9252 3.82 81.7092 3.46C81.5172 3.1 81.2412 2.86 80.8812 2.74C80.5452 2.62 80.1372 2.56 79.6572 2.56C79.2252 2.56 78.8292 2.62 78.4692 2.74C78.1092 2.86 77.8212 3.1 77.6052 3.46C77.4132 3.82 77.3172 4.36 77.3172 5.08V17.86C77.3172 18.58 77.4132 19.12 77.6052 19.48C77.8212 19.84 78.1092 20.08 78.4692 20.2C78.8292 20.32 79.2252 20.38 79.6572 20.38C80.3532 20.38 80.9172 20.176 81.3492 19.768C81.8052 19.336 82.0332 18.7 82.0332 17.86V13.54H79.9092V11.56H85.3812V22H82.7892L82.6092 20.2C82.5612 20.296 82.5012 20.404 82.4292 20.524C82.3572 20.62 82.2972 20.704 82.2492 20.776C81.9612 21.208 81.5292 21.592 80.9532 21.928C80.4012 22.24 79.6212 22.396 78.6132 22.396ZM91.9112 22V12.856L87.9512 0.723999H91.3712L93.6032 7.996L93.7832 9.112L93.9992 7.996L96.3392 0.723999H99.5432L95.3672 13.036V22H91.9112ZM102.449 22V0.723999H106.697L110.261 15.844L113.861 0.723999H118.073V22H115.013V5.584L111.449 22H109.073L105.509 5.584V22H102.449Z" fill="white"/>
</g></symbol><symbol id="ok-icon" viewBox="0 0 25 25"><g fill="none">
<path d="M12.5 0C5.59692 0 0 5.59692 0 12.5C0 19.4031 5.59692 25 12.5 25C19.4031 25 25 19.4031 25 12.5C25 5.59692 19.4031 0 12.5 0Z" fill="white"/>
<path d="M12.6804 6.88882C13.5788 6.88882 14.3096 7.64312 14.3096 8.57064C14.3096 9.49536 13.5788 10.2497 12.6804 10.2497C11.7819 10.2497 11.0512 9.49536 11.0512 8.57064C11.0512 7.64312 11.7819 6.88882 12.6804 6.88882ZM12.6804 12.6299C14.8508 12.6299 16.6153 10.8084 16.6153 8.57064C16.6153 6.33008 14.8508 4.50858 12.6804 4.50858C10.5099 4.50858 8.74809 6.33008 8.74809 8.57064C8.74809 10.8084 10.5099 12.6299 12.6804 12.6299ZM14.2717 15.9432C15.0727 15.7533 15.844 15.4264 16.5558 14.9654C17.0943 14.6162 17.2567 13.8815 16.9184 13.3255C16.5774 12.7668 15.8684 12.5992 15.3271 12.9512C13.7169 13.996 11.6438 13.996 10.0309 12.9512C9.49232 12.5992 8.78057 12.7668 8.44228 13.3255C8.10399 13.8815 8.26637 14.6162 8.80492 14.9654C9.51668 15.4264 10.288 15.7533 11.089 15.9432L8.88882 18.2117C8.43957 18.6755 8.43957 19.4298 8.88882 19.8936C9.11615 20.1254 9.40843 20.2428 9.70342 20.2428C9.9984 20.2428 10.2934 20.1254 10.5207 19.8936L12.6804 17.6642L14.8427 19.8936C15.2919 20.3601 16.0199 20.3601 16.4719 19.8936C16.9211 19.4298 16.9211 18.6755 16.4719 18.2117L14.2717 15.9432Z" fill="#030A1A"/>
</g></symbol><symbol id="reddit-icon" viewBox="0 0 25 25"><g fill="none">
<path d="M12.5 0C5.59692 0 0 5.59692 0 12.5C0 19.4031 5.59692 25 12.5 25C19.4031 25 25 19.4031 25 12.5C25 5.59692 19.4031 0 12.5 0Z" fill="white"/>
<path d="M13.8509 5.55566C13.4055 5.55566 12.9876 5.7816 12.7195 6.10741C12.4514 6.43323 12.3037 6.8304 12.196 7.24897C12.0251 7.92201 11.9723 8.66877 11.9596 9.34181C10.7079 9.42505 9.57444 9.79606 8.63303 10.3692C8.25098 10.0481 7.79083 9.86978 7.34968 9.87454C6.84731 9.87929 6.37028 10.0957 6.01566 10.5404C5.3381 11.3895 5.4162 12.7784 6.20141 13.6036C6.15286 13.8581 6.11698 14.1197 6.11698 14.3837C6.11698 17.1805 8.97498 19.4446 12.5 19.4446C16.025 19.4446 18.883 17.1781 18.883 14.3837C18.883 14.1197 18.8471 13.8581 18.7986 13.6036C19.5838 12.7784 19.6619 11.3895 18.9843 10.5404C18.6297 10.0957 18.1527 9.87929 17.6503 9.87454C17.2091 9.86978 16.749 10.0481 16.3669 10.3692C15.4298 9.79843 14.3026 9.42743 13.0572 9.34181C13.0741 8.72109 13.1184 8.07659 13.243 7.59143C13.3211 7.28702 13.414 7.06584 13.5132 6.94455C13.6124 6.82326 13.6841 6.77332 13.8509 6.77332C14.2118 6.77332 14.2583 6.88985 14.4757 7.17286C14.5854 7.31556 14.7121 7.49393 14.9147 7.66754C15.1174 7.84115 15.4171 7.99098 15.7421 7.99098V6.77332C15.6514 6.77332 15.6345 6.77094 15.5733 6.71624C15.5121 6.66154 15.4276 6.5355 15.3031 6.37378C15.054 6.04796 14.5707 5.55566 13.8509 5.55566ZM17.3632 5.66982C16.5231 5.66982 15.8435 6.43561 15.8435 7.38215C15.8435 8.32869 16.5231 9.09448 17.3632 9.09448C18.2033 9.09448 18.883 8.32869 18.883 7.38215C18.883 6.43561 18.2033 5.66982 17.3632 5.66982ZM17.3632 6.27865C17.9036 6.27865 18.3426 6.77332 18.3426 7.38215C18.3426 7.99098 17.9036 8.48565 17.3632 8.48565C16.8229 8.48565 16.3838 7.99098 16.3838 7.38215C16.3838 6.77332 16.8229 6.27865 17.3632 6.27865ZM12.5 10.2931C15.491 10.2931 18.0218 12.1695 18.0218 14.3837C18.0218 16.6002 15.491 18.4742 12.5 18.4742C9.50901 18.4742 6.97818 16.6002 6.97818 14.3837C6.97818 12.1695 9.50901 10.2931 12.5 10.2931ZM7.36656 10.8449C7.51643 10.8472 7.67263 10.8853 7.82249 10.959C7.28002 11.4228 6.84942 11.9555 6.55602 12.5572C6.35339 12.0863 6.40827 11.4989 6.65734 11.1873C6.83887 10.959 7.09005 10.8425 7.36656 10.8449ZM17.6334 10.8449C17.9099 10.8425 18.1611 10.959 18.3426 11.1873C18.5917 11.4989 18.6466 12.0863 18.4439 12.5572C18.1506 11.9555 17.72 11.4228 17.1775 10.959C17.3273 10.8853 17.4835 10.8472 17.6334 10.8449ZM10.3385 12.3669C9.79819 12.3669 9.35914 12.8616 9.35914 13.4704C9.35914 14.0793 9.79819 14.5739 10.3385 14.5739C10.8789 14.5739 11.3179 14.0793 11.3179 13.4704C11.3179 12.8616 10.8789 12.3669 10.3385 12.3669ZM14.6614 12.3669C14.1211 12.3669 13.682 12.8616 13.682 13.4704C13.682 14.0793 14.1211 14.5739 14.6614 14.5739C15.2018 14.5739 15.6408 14.0793 15.6408 13.4704C15.6408 12.8616 15.2018 12.3669 14.6614 12.3669ZM9.81507 16.115C10.1591 16.9165 11.223 17.6942 12.5 17.6942C13.777 17.6942 14.8577 16.9165 15.2018 16.115C14.577 16.5693 13.5913 16.8761 12.5 16.8761C11.4087 16.8761 10.4399 16.5693 9.81507 16.115Z" fill="#030A1A"/>
</g></symbol><symbol id="vk-icon" viewBox="0 0 25 25"><g fill="none">
<path d="M12.5 0C5.59692 0 0 5.59692 0 12.5C0 19.4031 5.59692 25 12.5 25C19.4031 25 25 19.4031 25 12.5C25 5.59692 19.4031 0 12.5 0Z" fill="white"/>
<path d="M13.7227 15.0518C14.1654 14.9087 14.7322 15.9964 15.3355 16.4127C15.7884 16.728 16.1352 16.6599 16.1352 16.6599L17.7434 16.6368C17.7434 16.6368 18.5838 16.5849 18.1865 15.9172C18.1536 15.8616 17.9536 15.4222 16.9895 14.5179C15.9815 13.5718 16.1181 13.7251 17.3317 12.0896C18.0712 11.0927 18.3671 10.4838 18.2745 10.2244C18.1856 9.97486 17.6424 10.0397 17.6424 10.0397L15.8305 10.0522C15.6541 10.0527 15.5045 10.1073 15.4365 10.2907C15.4351 10.2925 15.1489 11.0621 14.7674 11.7164C13.9612 13.1005 13.6394 13.1741 13.506 13.0875C13.1999 12.887 13.2773 12.2832 13.2773 11.8539C13.2773 10.5125 13.4773 9.9531 12.8855 9.80863C12.6878 9.76047 12.5433 9.72898 12.0391 9.72435C11.3945 9.71463 10.8472 9.72435 10.5369 9.8767C10.3309 9.97996 10.173 10.2064 10.2688 10.2194C10.3892 10.2356 10.6592 10.2934 10.8036 10.4907C10.9893 10.7463 10.9838 11.3191 10.9838 11.3191C10.9838 11.3191 11.0898 12.8986 10.7337 13.0944C10.4892 13.2287 10.1549 12.9546 9.43578 11.6979C9.06858 11.0552 8.79121 10.3448 8.79121 10.3448C8.79121 10.3448 8.7375 10.2129 8.64026 10.1406C8.52449 10.055 8.36243 10.0277 8.36243 10.0277L6.64265 10.0388C6.64265 10.0388 6.38427 10.0462 6.28935 10.1601C6.20507 10.261 6.2824 10.4694 6.2824 10.4694C6.2824 10.4694 7.62942 13.6557 9.15471 15.2606C10.5531 16.734 12.1423 16.6363 12.1423 16.6363H12.8624C12.8624 16.6363 13.0795 16.6113 13.1907 16.4918C13.2944 16.3807 13.2898 16.1719 13.2898 16.1719C13.2898 16.1719 13.2754 15.1953 13.7227 15.0518Z" fill="#030A1A"/>
</g></symbol></svg>